<svg width="352" height="46" viewBox="0 0 352 46" fill="none" xmlns="http://www.w3.org/2000/svg">
<path d="M0.664062 23.6328L10.7656 23C10.9844 24.6406 11.4297 25.8906 12.1016 26.75C13.1953 28.1406 14.7578 28.8359 16.7891 28.8359C18.3047 28.8359 19.4688 28.4844 20.2812 27.7812C21.1094 27.0625 21.5234 26.2344 21.5234 25.2969C21.5234 24.4062 21.1328 23.6094 20.3516 22.9062C19.5703 22.2031 17.7578 21.5391 14.9141 20.9141C10.2578 19.8672 6.9375 18.4766 4.95312 16.7422C2.95312 15.0078 1.95312 12.7969 1.95312 10.1094C1.95312 8.34375 2.46094 6.67969 3.47656 5.11719C4.50781 3.53906 6.04688 2.30469 8.09375 1.41406C10.1562 0.507812 12.9766 0.0546875 16.5547 0.0546875C20.9453 0.0546875 24.2891 0.875 26.5859 2.51562C28.8984 4.14062 30.2734 6.73438 30.7109 10.2969L20.7031 10.8828C20.4375 9.33594 19.875 8.21094 19.0156 7.50781C18.1719 6.80469 17 6.45312 15.5 6.45312C14.2656 6.45312 13.3359 6.71875 12.7109 7.25C12.0859 7.76562 11.7734 8.39844 11.7734 9.14844C11.7734 9.69531 12.0312 10.1875 12.5469 10.625C13.0469 11.0781 14.2344 11.5 16.1094 11.8906C20.75 12.8906 24.0703 13.9062 26.0703 14.9375C28.0859 15.9531 29.5469 17.2188 30.4531 18.7344C31.375 20.25 31.8359 21.9453 31.8359 23.8203C31.8359 26.0234 31.2266 28.0547 30.0078 29.9141C28.7891 31.7734 27.0859 33.1875 24.8984 34.1562C22.7109 35.1094 19.9531 35.5859 16.625 35.5859C10.7812 35.5859 6.73438 34.4609 4.48438 32.2109C2.23438 29.9609 0.960938 27.1016 0.664062 23.6328ZM48.0781 0.640625V10.1094H53.3281V17.0703H48.0781V25.9062C48.0781 26.9688 48.1797 27.6719 48.3828 28.0156C48.6953 28.5469 49.2422 28.8125 50.0234 28.8125C50.7266 28.8125 51.7109 28.6094 52.9766 28.2031L53.6797 34.7891C51.3203 35.3047 49.1172 35.5625 47.0703 35.5625C44.6953 35.5625 42.9453 35.2578 41.8203 34.6484C40.6953 34.0391 39.8594 33.1172 39.3125 31.8828C38.7812 30.6328 38.5156 28.6172 38.5156 25.8359V17.0703H35V10.1094H38.5156V5.53906L48.0781 0.640625ZM66.5938 18.1719L57.4766 17.2109C57.8203 15.6172 58.3125 14.3672 58.9531 13.4609C59.6094 12.5391 60.5469 11.7422 61.7656 11.0703C62.6406 10.5859 63.8438 10.2109 65.375 9.94531C66.9062 9.67969 68.5625 9.54688 70.3438 9.54688C73.2031 9.54688 75.5 9.71094 77.2344 10.0391C78.9688 10.3516 80.4141 11.0156 81.5703 12.0312C82.3828 12.7344 83.0234 13.7344 83.4922 15.0312C83.9609 16.3125 84.1953 17.5391 84.1953 18.7109V29.7031C84.1953 30.875 84.2656 31.7969 84.4062 32.4688C84.5625 33.125 84.8906 33.9688 85.3906 35H76.4375C76.0781 34.3594 75.8438 33.875 75.7344 33.5469C75.625 33.2031 75.5156 32.6719 75.4062 31.9531C74.1562 33.1562 72.9141 34.0156 71.6797 34.5312C69.9922 35.2188 68.0312 35.5625 65.7969 35.5625C62.8281 35.5625 60.5703 34.875 59.0234 33.5C57.4922 32.125 56.7266 30.4297 56.7266 28.4141C56.7266 26.5234 57.2812 24.9688 58.3906 23.75C59.5 22.5312 61.5469 21.625 64.5312 21.0312C68.1094 20.3125 70.4297 19.8125 71.4922 19.5312C72.5547 19.2344 73.6797 18.8516 74.8672 18.3828C74.8672 17.2109 74.625 16.3906 74.1406 15.9219C73.6562 15.4531 72.8047 15.2188 71.5859 15.2188C70.0234 15.2188 68.8516 15.4688 68.0703 15.9688C67.4609 16.3594 66.9688 17.0938 66.5938 18.1719ZM74.8672 23.1875C73.5547 23.6562 72.1875 24.0703 70.7656 24.4297C68.8281 24.9453 67.6016 25.4531 67.0859 25.9531C66.5547 26.4688 66.2891 27.0547 66.2891 27.7109C66.2891 28.4609 66.5469 29.0781 67.0625 29.5625C67.5938 30.0312 68.3672 30.2656 69.3828 30.2656C70.4453 30.2656 71.4297 30.0078 72.3359 29.4922C73.2578 28.9766 73.9062 28.3516 74.2812 27.6172C74.6719 26.8672 74.8672 25.8984 74.8672 24.7109V23.1875ZM90.0078 10.1094H98.9375V14.1875C99.7969 12.4219 100.68 11.2109 101.586 10.5547C102.508 9.88281 103.641 9.54688 104.984 9.54688C106.391 9.54688 107.93 9.98438 109.602 10.8594L106.648 17.6562C105.523 17.1875 104.633 16.9531 103.977 16.9531C102.727 16.9531 101.758 17.4688 101.07 18.5C100.086 19.9531 99.5938 22.6719 99.5938 26.6562V35H90.0078V10.1094ZM125.492 0.640625H157.766V9.125H146.938V35H136.32V9.125H125.492V0.640625ZM159.992 10.1094H168.922V14.1875C169.781 12.4219 170.664 11.2109 171.57 10.5547C172.492 9.88281 173.625 9.54688 174.969 9.54688C176.375 9.54688 177.914 9.98438 179.586 10.8594L176.633 17.6562C175.508 17.1875 174.617 16.9531 173.961 16.9531C172.711 16.9531 171.742 17.4688 171.055 18.5C170.07 19.9531 169.578 22.6719 169.578 26.6562V35H159.992V10.1094ZM190.766 18.1719L181.648 17.2109C181.992 15.6172 182.484 14.3672 183.125 13.4609C183.781 12.5391 184.719 11.7422 185.938 11.0703C186.812 10.5859 188.016 10.2109 189.547 9.94531C191.078 9.67969 192.734 9.54688 194.516 9.54688C197.375 9.54688 199.672 9.71094 201.406 10.0391C203.141 10.3516 204.586 11.0156 205.742 12.0312C206.555 12.7344 207.195 13.7344 207.664 15.0312C208.133 16.3125 208.367 17.5391 208.367 18.7109V29.7031C208.367 30.875 208.438 31.7969 208.578 32.4688C208.734 33.125 209.062 33.9688 209.562 35H200.609C200.25 34.3594 200.016 33.875 199.906 33.5469C199.797 33.2031 199.688 32.6719 199.578 31.9531C198.328 33.1562 197.086 34.0156 195.852 34.5312C194.164 35.2188 192.203 35.5625 189.969 35.5625C187 35.5625 184.742 34.875 183.195 33.5C181.664 32.125 180.898 30.4297 180.898 28.4141C180.898 26.5234 181.453 24.9688 182.562 23.75C183.672 22.5312 185.719 21.625 188.703 21.0312C192.281 20.3125 194.602 19.8125 195.664 19.5312C196.727 19.2344 197.852 18.8516 199.039 18.3828C199.039 17.2109 198.797 16.3906 198.312 15.9219C197.828 15.4531 196.977 15.2188 195.758 15.2188C194.195 15.2188 193.023 15.4688 192.242 15.9688C191.633 16.3594 191.141 17.0938 190.766 18.1719ZM199.039 23.1875C197.727 23.6562 196.359 24.0703 194.938 24.4297C193 24.9453 191.773 25.4531 191.258 25.9531C190.727 26.4688 190.461 27.0547 190.461 27.7109C190.461 28.4609 190.719 29.0781 191.234 29.5625C191.766 30.0312 192.539 30.2656 193.555 30.2656C194.617 30.2656 195.602 30.0078 196.508 29.4922C197.43 28.9766 198.078 28.3516 198.453 27.6172C198.844 26.8672 199.039 25.8984 199.039 24.7109V23.1875ZM232.648 25.2734L241.719 26.3047C241.219 28.1953 240.398 29.8359 239.258 31.2266C238.117 32.6016 236.656 33.6719 234.875 34.4375C233.109 35.2031 230.859 35.5859 228.125 35.5859C225.484 35.5859 223.281 35.3438 221.516 34.8594C219.766 34.3594 218.258 33.5625 216.992 32.4688C215.727 31.3594 214.734 30.0625 214.016 28.5781C213.297 27.0938 212.938 25.125 212.938 22.6719C212.938 20.1094 213.375 17.9766 214.25 16.2734C214.891 15.0234 215.766 13.9062 216.875 12.9219C217.984 11.9219 219.125 11.1797 220.297 10.6953C222.156 9.92969 224.539 9.54688 227.445 9.54688C231.508 9.54688 234.602 10.2734 236.727 11.7266C238.867 13.1797 240.367 15.3047 241.227 18.1016L232.25 19.2969C231.969 18.2344 231.453 17.4375 230.703 16.9062C229.969 16.3594 228.977 16.0859 227.727 16.0859C226.148 16.0859 224.867 16.6562 223.883 17.7969C222.914 18.9219 222.43 20.6328 222.43 22.9297C222.43 24.9766 222.914 26.5312 223.883 27.5938C224.852 28.6562 226.086 29.1875 227.586 29.1875C228.836 29.1875 229.883 28.8672 230.727 28.2266C231.586 27.5859 232.227 26.6016 232.648 25.2734ZM245.258 0.640625H255.008V18.3594L262.133 10.1094H273.875L264.945 18.8281L274.391 35H263.633L258.594 25.0156L255.008 28.5312V35H245.258V0.640625ZM277.625 0.640625H287.164V7.13281H277.625V0.640625ZM277.625 10.1094H287.164V35H277.625V10.1094ZM293.258 10.1094H302.141V14.1641C303.469 12.5078 304.812 11.3281 306.172 10.625C307.531 9.90625 309.188 9.54688 311.141 9.54688C313.781 9.54688 315.844 10.3359 317.328 11.9141C318.828 13.4766 319.578 15.8984 319.578 19.1797V35H309.992V21.3125C309.992 19.75 309.703 18.6484 309.125 18.0078C308.547 17.3516 307.734 17.0234 306.688 17.0234C305.531 17.0234 304.594 17.4609 303.875 18.3359C303.156 19.2109 302.797 20.7812 302.797 23.0469V35H293.258V10.1094ZM342.594 10.1094H351.523V33.6172L351.547 34.7188C351.547 36.2812 351.211 37.7656 350.539 39.1719C349.883 40.5938 349 41.7422 347.891 42.6172C346.797 43.4922 345.398 44.125 343.695 44.5156C342.008 44.9062 340.07 45.1016 337.883 45.1016C332.883 45.1016 329.445 44.3516 327.57 42.8516C325.711 41.3516 324.781 39.3438 324.781 36.8281C324.781 36.5156 324.797 36.0938 324.828 35.5625L334.086 36.6172C334.32 37.4766 334.68 38.0703 335.164 38.3984C335.867 38.8828 336.75 39.125 337.812 39.125C339.188 39.125 340.211 38.7578 340.883 38.0234C341.57 37.2891 341.914 36.0078 341.914 34.1797V30.4062C340.977 31.5156 340.039 32.3203 339.102 32.8203C337.633 33.6016 336.047 33.9922 334.344 33.9922C331.016 33.9922 328.328 32.5391 326.281 29.6328C324.828 27.5703 324.102 24.8438 324.102 21.4531C324.102 17.5781 325.039 14.625 326.914 12.5938C328.789 10.5625 331.242 9.54688 334.273 9.54688C336.211 9.54688 337.805 9.875 339.055 10.5312C340.32 11.1875 341.5 12.2734 342.594 13.7891V10.1094ZM333.617 22.1797C333.617 23.9766 334 25.3125 334.766 26.1875C335.531 27.0469 336.539 27.4766 337.789 27.4766C338.977 27.4766 339.969 27.0312 340.766 26.1406C341.578 25.2344 341.984 23.875 341.984 22.0625C341.984 20.25 341.562 18.8672 340.719 17.9141C339.875 16.9453 338.844 16.4609 337.625 16.4609C336.406 16.4609 335.43 16.9062 334.695 17.7969C333.977 18.6719 333.617 20.1328 333.617 22.1797Z" fill="#FFC700"/>
</svg>
